# xmcd
#
# Track frame offsets:
#	150
#	17667
#	41795
#	65493
#	86118
#	101371
#	124182
#	146574
#	164578
#	181084
#	204639
#
# Disc length: 3043 seconds
#
# Revision: 1
# Processed by: cddbd v1.5.1PL2 Copyright (c) Steve Scherf et al.
# Submitted via: audiograbber 1.83.01
#
DISCID=990be10b
DTITLE=Sons of Bill - A Far Cry From Freedom
DYEAR=2006
DGENRE=
TTITLE0=Back To The Time
TTITLE1=Far Cry
TTITLE2=My Hometown
TTITLE3=Texas
TTITLE4=Roll On Jordon
TTITLE5=Makin' It Through The Night
TTITLE6=Whispering
TTITLE7=Ballad of Middle-Aged Heartache
TTITLE8=Too Far Gone
TTITLE9=Savannah Rain
TTITLE10=Metaphysical Gingham Gown
EXTD=
EXTT0=
EXTT1=
EXTT2=
EXTT3=
EXTT4=
EXTT5=
EXTT6=
EXTT7=
EXTT8=
EXTT9=
EXTT10=
PLAYORDER=
